<?xml version="1.0" encoding="UTF-8" standalone="no"?>
<svg width="167px" height="151px" viewBox="0 0 167 151" version="1.1" xmlns="http://www.w3.org/2000/svg" xmlns:xlink="http://www.w3.org/1999/xlink" xmlns:sketch="http://www.bohemiancoding.com/sketch/ns">
    <!-- Generator: Sketch 3.2.2 (9983) - http://www.bohemiancoding.com/sketch -->
    <title>Logo</title>
    <desc>Created with Sketch.</desc>
    <defs></defs>
    <g id="Page-1" stroke="none" stroke-width="1" fill="none" fill-rule="evenodd" sketch:type="MSPage">
        <g id="Start" sketch:type="MSArtboardGroup" transform="translate(-637.000000, -309.000000)" fill="#263238">
            <g id="Logo" sketch:type="MSLayerGroup" transform="translate(637.000000, 308.000000)">
                <g id="Badge" transform="translate(34.000000, 0.000000)" sketch:type="MSShapeGroup">
                    <path d="M93.4118421,24.3316706 L55.9763158,2.688 C52.3921053,0.615341176 47.975,0.615341176 44.3894737,2.688 L6.95526316,24.3316706 C3.36973684,26.4043294 1.16052632,30.2347294 1.16052632,34.3800471 L1.16052632,77.6673882 C1.16052632,81.8127059 3.36973684,85.6431059 6.95526316,87.7170824 L44.3894737,109.359435 C47.975,111.432094 52.3921053,111.432094 55.9763158,109.359435 L93.4118421,87.7170824 C96.9960526,85.6431059 99.2052632,81.8127059 99.2052632,77.6673882 L99.2052632,34.3800471 C99.2052632,30.2347294 96.9960526,26.4043294 93.4118421,24.3316706 L93.4118421,24.3316706 Z M74.8171053,61.6355765 C74.2197368,62.0163765 73.5907895,62.3523765 72.9328947,62.6317176 C71.4013158,63.28 69.7171053,63.6384 67.9486842,63.6384 C67.1907895,63.6384 66.45,63.5698824 65.7276316,63.4433882 C67.5302632,64.5805176 69.6631579,65.2419765 71.95,65.2419765 C72.1381579,65.2419765 72.325,65.2367059 72.5105263,65.2274824 C72.8868421,65.2090353 73.2592105,65.1734588 73.6263158,65.1207529 C73.1421053,66.0299294 72.5421053,66.8679529 71.8447368,67.6163765 C69.7118421,69.9011765 66.6776316,71.3321412 63.3078947,71.3321412 C61.8684211,71.3321412 60.4921053,71.0699294 59.2184211,70.5942588 C60.6184211,73.3639529 62.5592105,75.8095059 64.9078947,77.7912471 C63.1276316,79.2946824 61.1144737,80.5293176 58.9302632,81.4358588 C56.2355263,82.5545412 53.2815789,83.1751529 50.1828947,83.1751529 C47.1671053,83.1751529 44.2907895,82.5848471 41.6539474,81.5228235 C39.3197368,80.5820235 37.1776316,79.2683294 35.2973684,77.6528941 C37.5013158,75.7581176 39.3407895,73.4522353 40.6960526,70.8512 C39.6434211,71.1621647 38.5315789,71.3321412 37.3789474,71.3321412 C33.7276316,71.3321412 30.4671053,69.6534588 28.325,67.0260706 C27.8434211,66.4357647 27.4197368,65.7980235 27.0592105,65.1207529 C27.3197368,65.1576471 27.5842105,65.1853176 27.8513158,65.2050824 L28.7355263,65.2419765 C31.0802632,65.2419765 33.2618421,64.5475765 35.0921053,63.3564235 C34.2289474,63.5408941 33.3342105,63.6384 32.4171053,63.6384 C30.6486842,63.6384 28.9657895,63.28 27.4328947,62.6317176 C26.9052632,62.4077176 26.3973684,62.1481412 25.9078947,61.8582588 C22.1407895,59.6261647 19.6131579,55.5177412 19.6131579,50.8163765 C19.6131579,50.5633882 19.6223684,50.3130353 19.6368421,50.064 C21.9355263,51.5516235 24.6736842,52.4186353 27.6157895,52.4186353 C27.8092105,52.4186353 28.0013158,52.4120471 28.1934211,52.4041412 C28.3671053,52.3975529 28.5394737,52.3870118 28.7105263,52.3751529 C29.2355263,52.3356235 29.7526316,52.2697412 30.2605263,52.1775059 C29.8052632,52.0879059 29.3578947,51.9759059 28.9210526,51.8401882 L28.7236842,51.7729882 C25.3118421,50.6450824 22.5368421,48.1231059 21.0697368,44.8777412 L21.0171053,44.7604706 C20.3210526,43.1806118 19.9328947,41.4347294 19.9328947,39.5966118 C19.9328947,38.8402824 20.0026316,38.0997647 20.1276316,37.3776941 C20.1328947,37.3526588 20.1368421,37.3263059 20.1421053,37.2999529 C20.7513158,33.9241412 22.6802632,31.0095059 25.375,29.1094588 C25.8789474,30.6550588 26.5210526,32.1374118 27.2921053,33.5393882 C28.2,35.1904 29.2855263,36.7294118 30.5171053,38.1353412 C32.0131579,39.8416941 33.725,41.3530353 35.6157895,42.6179765 C37.0881579,43.6022588 38.6684211,44.4350118 40.3315789,45.1056941 C40.7236842,45.2624941 41.1197368,45.4100706 41.5197368,45.5497412 C41.9276316,45.6894118 42.3381579,45.8211765 42.7552632,45.9410824 C43.0723684,46.0333176 43.3907895,46.1229176 43.7118421,46.2019765 C43.95,46.2612706 44.1894737,46.3152941 44.4289474,46.368 C46.2144737,46.7580235 48.0671053,46.9701647 49.9697368,46.9701647 C52.0394737,46.9701647 54.05,46.7198118 55.9802632,46.2599529 C56.1868421,46.2098824 56.3947368,46.1624471 56.5986842,46.1071059 C56.8855263,46.032 57.1697368,45.9503059 57.4526316,45.8646588 C58.3960526,45.5800471 59.3171053,45.2427294 60.2118421,44.8566588 C61.7407895,44.1952 63.1934211,43.3927529 64.5539474,42.4611765 C66.3710526,41.216 68.0197368,39.7428706 69.4644737,38.0865882 C70.7381579,36.624 71.8552632,35.0204235 72.7802632,33.2956235 C73.5315789,31.8936471 74.1578947,30.4139294 74.6447368,28.8722824 C77.4802632,30.7367529 79.5315789,33.6961882 80.1986842,37.1523765 L80.2394737,37.3869176 C80.3644737,38.1050353 80.4328947,38.8429176 80.4328947,39.5966118 C80.4328947,41.3569882 80.0789474,43.0343529 79.4381579,44.5601882 L79.2960526,44.8777412 C77.8644737,48.0453647 75.1855263,50.5251765 71.8855263,51.6912941 L71.4447368,51.8401882 C71.0565789,51.9614118 70.6605263,52.0628706 70.2578947,52.1472 C70.7131579,52.2354824 71.1763158,52.304 71.6460526,52.3488 C71.925,52.3764706 72.2078947,52.3936 72.4921053,52.4041412 C72.6842105,52.4120471 72.8763158,52.4186353 73.0710526,52.4186353 C75.8802632,52.4186353 78.5052632,51.6306824 80.7394737,50.2629647 C80.7473684,50.4474353 80.7539474,50.6305882 80.7539474,50.8163765 C80.7539474,55.3662118 78.3842105,59.36 74.8171053,61.6355765 L74.8171053,61.6355765 Z" id="Fill-1"></path>
                    <path d="M55.2197368,52.1933176 L54.5894737,51.8454588 C53.2671053,51.1681882 51.7697368,50.7847529 50.1828947,50.7847529 C48.6842105,50.7847529 47.2644737,51.1260235 45.9973684,51.7334588 L45.1473684,52.1933176 C44.1473684,52.8020706 43.2697368,53.5873882 42.55,54.5031529 C41.25,56.1568 40.4723684,58.2413176 40.4723684,60.5089882 C40.4723684,60.5985882 40.4776316,60.6868706 40.4802632,60.7751529 C40.4947368,61.3088 40.55,61.8319059 40.6473684,62.3418353 C40.6986842,62.5842824 40.7565789,62.8240941 40.8144737,63.0639059 C41.1447368,64.2840471 41.7065789,65.4093176 42.4513158,66.3896471 C43.1171053,67.2645647 43.9263158,68.0235294 44.8460526,68.6309647 C44.4026316,68.9999059 43.9315789,69.3372235 43.4368421,69.6376471 C45.1657895,72.6445176 47.4960526,75.2587294 50.2684211,77.3129412 C53.0355263,75.2178824 55.3513158,72.5615059 57.0513158,69.5124706 C56.5776316,69.2094118 56.125,68.8747294 55.7,68.5084235 C56.4407895,67.9958588 57.1078947,67.3831529 57.6789474,66.6887529 C58.5289474,65.6570353 59.1684211,64.4448 59.5355263,63.1192471 C59.6460526,62.7252706 59.7315789,62.3220706 59.7907895,61.9109647 C59.8447368,61.5393882 59.8763158,61.1599059 59.8855263,60.7751529 C59.8881579,60.6868706 59.8934211,60.5985882 59.8934211,60.5089882 C59.8934211,58.1056 59.0210526,55.9090824 57.5789474,54.2119529 L55.2197368,52.1933176 L55.2197368,52.1933176 Z M56.0789474,61.3180235 C55.1763158,62.2219294 53.9460526,62.5921882 52.7723684,62.4380235 C52.7881579,62.5579294 52.8078947,62.6765176 52.8342105,62.7937882 C52.0618421,63.1179294 51.3368421,63.5922824 50.7078947,64.2221176 C50.5276316,64.4026353 50.3631579,64.5910588 50.2092105,64.7860706 C50.0539474,64.5910588 49.8894737,64.4026353 49.7105263,64.2221176 C49.0684211,63.5791059 48.3276316,63.0968471 47.5368421,62.7727059 C47.5605263,62.6620235 47.5789474,62.5500235 47.5934211,62.4380235 C46.4197368,62.5921882 45.1894737,62.2219294 44.2868421,61.3180235 C43.3855263,60.4141176 43.0144737,59.1834353 43.1684211,58.0067765 C44.3434211,57.8526118 45.5736842,58.2241882 46.475,59.1267765 C47.3776316,60.0306824 47.7473684,61.2626824 47.5934211,62.4380235 C48.4263158,62.3299765 49.2315789,61.9584 49.8710526,61.3180235 C49.9842105,61.2047059 50.0868421,61.0848 50.1828947,60.9622588 C49.0605263,59.5339294 49.0605263,57.5126588 50.1828947,56.0843294 C51.3052632,57.5126588 51.3052632,59.5339294 50.1828947,60.9622588 C50.2802632,61.0848 50.3815789,61.2047059 50.4947368,61.3180235 C51.1342105,61.9584 51.9394737,62.3299765 52.7723684,62.4380235 C52.6184211,61.2626824 52.9881579,60.0306824 53.8907895,59.1267765 C54.7934211,58.2241882 56.0223684,57.8526118 57.1973684,58.0067765 C57.3513158,59.1834353 56.9802632,60.4141176 56.0789474,61.3180235 L56.0789474,61.3180235 Z" id="Fill-2"></path>
                </g>
                <g id="Text" transform="translate(0.000000, 127.000000)" sketch:type="MSShapeGroup">
                    <path d="M9.13,24.545 L0.403,24.545 L0.403,0.922 L9.306,0.922 C12.565,0.922 16,2.779 16,7.056 C16,9.438 14.493,11.261 12.354,12.102 C15.089,12.628 17.297,14.521 17.297,17.921 C17.297,22.582 13.512,24.545 9.13,24.545 L9.13,24.545 Z M8.955,3.06 L2.892,3.06 L2.892,11.227 L8.92,11.227 C11.654,11.227 13.512,9.824 13.512,7.195 C13.512,4.637 11.759,3.06 8.955,3.06 L8.955,3.06 Z M8.675,13.294 L2.892,13.294 L2.892,22.407 L8.85,22.407 C12.846,22.407 14.809,20.97 14.809,17.815 C14.809,14.801 12.354,13.294 8.675,13.294 L8.675,13.294 Z" id="Fill-1"></path>
                    <path d="M22.966,24.545 L22.966,0.922 L37.021,0.922 L37.021,3.165 L25.454,3.165 L25.454,11.227 L35.97,11.227 L35.97,13.399 L25.454,13.399 L25.454,22.302 L37.722,22.302 L37.722,24.545 L22.966,24.545" id="Fill-2"></path>
                    <path d="M69.304,24.545 L66.43,17.29 L56.09,17.29 L53.251,24.545 L50.518,24.545 L60.261,0.571 L62.399,0.571 L72.072,24.545 L69.304,24.545 L69.304,24.545 Z M61.242,4.182 L56.932,15.151 L65.589,15.151 L61.242,4.182 L61.242,4.182 Z" id="Fill-3"></path>
                    <path d="M85.184,24.545 L85.184,0.922 L89.529,0.922 L89.529,20.059 L101.376,20.059 L101.376,24.545 L85.184,24.545" id="Fill-4"></path>
                    <path d="M105.321,24.545 L105.321,0.922 L121.059,0.922 L121.059,5.443 L109.667,5.443 L109.667,9.509 L120.007,9.509 L120.007,14.065 L109.667,14.065 L109.667,20.059 L121.759,20.059 L121.759,24.545 L105.321,24.545" id="Fill-5"></path>
                    <path d="M126.882,24.545 L126.882,0.922 L142.619,0.922 L142.619,5.443 L131.227,5.443 L131.227,9.509 L141.567,9.509 L141.567,14.065 L131.227,14.065 L131.227,20.059 L143.319,20.059 L143.319,24.545 L126.882,24.545" id="Fill-6"></path>
                    <path d="M158.386,5.443 L158.386,24.545 L154.039,24.545 L154.039,5.443 L145.873,5.443 L145.873,0.922 L166.552,0.922 L166.552,5.443 L158.386,5.443" id="Fill-7"></path>
                </g>
            </g>
        </g>
    </g>
</svg>